<svg xmlns="http://www.w3.org/2000/svg" width="38" height="38" fill="none"><path fill="#E53057" d="M7.28 37.091h23.44c4.195 0 6.352-2.157 6.352-6.288V7.236c0-4.135-2.157-6.288-6.352-6.288H7.28C3.1.948.928 3.085.928 7.236v23.567c0 4.147 2.173 6.288 6.352 6.288Z"/><path fill="#fff" d="M16.893 28.553c-.732 0-1.33-.316-1.868-1.018l-4.749-5.772c-.342-.443-.524-.89-.524-1.381 0-.986.786-1.787 1.785-1.787.598 0 1.059.206 1.56.845l3.729 4.739 8.007-12.82c.423-.661.972-1.01 1.579-1.01.95 0 1.842.68 1.842 1.694 0 .447-.222.92-.505 1.365L18.687 27.52c-.442.677-1.073 1.032-1.794 1.032Z"/></svg>