<svg xmlns="http://www.w3.org/2000/svg" width="100" height="51" fill="none"><g clip-path="url(#a)"><path fill="#E53057" d="M15.565 51c-2.495 0-4.386-1.959-4.386-4.528 0-2.59 1.891-4.548 4.386-4.548 2.066 0 3.716 1.401 4.11 3.466h-1.843c-.347-1.028-1.196-1.67-2.268-1.67-1.437 0-2.524 1.188-2.524 2.752 0 1.564 1.087 2.731 2.524 2.731 1.118 0 1.98-.692 2.285-1.793h1.852c-.387 2.151-2.033 3.59-4.137 3.59ZM31.952 49.066v1.75h-5.097v-8.704h1.838v6.954h3.26ZM44.063 49.162h-3.379l-.583 1.65h-1.95l3.328-8.701h1.736l3.436 8.705h-1.996l-.592-1.654Zm-2.806-1.64h2.229l-1.12-3.111-1.11 3.11ZM52.757 47.993h1.852c0 .841.68 1.246 1.43 1.246.692 0 1.368-.374 1.368-1.022 0-.675-.773-.858-1.696-1.08-1.28-.324-2.833-.704-2.833-2.579 0-1.67 1.2-2.609 3.08-2.609 1.953 0 3.064 1.068 3.064 2.8h-1.817c0-.748-.604-1.1-1.288-1.1-.595 0-1.199.259-1.199.829 0 .612.738.797 1.637 1.018 1.296.336 2.922.75 2.922 2.698 0 1.88-1.462 2.79-3.22 2.79-1.956 0-3.3-1.121-3.3-2.991ZM66.1 47.993h1.853c0 .841.678 1.246 1.43 1.246.692 0 1.367-.374 1.367-1.022 0-.675-.773-.858-1.695-1.08-1.28-.324-2.834-.704-2.834-2.579 0-1.67 1.2-2.609 3.08-2.609 1.953 0 3.064 1.068 3.064 2.8h-1.821c0-.748-.603-1.1-1.288-1.1-.596 0-1.2.259-1.2.829 0 .612.739.797 1.637 1.018 1.296.336 2.921.75 2.921 2.698 0 1.88-1.46 2.79-3.22 2.79-1.953 0-3.294-1.121-3.294-2.991ZM24.11 19.442H9.839v5.022H24.11v-5.022ZM24.789 33.705H9.838v5.022h14.95v-5.022ZM24.789 6.782H9.838v5.022h14.95V6.782Z"/><path fill="#261D68" d="M35.886 38.727h-5.424V2.4h5.424v36.326ZM49.392 38.726H43.97v-24.36h5.423v24.36ZM72.659 28.523v1.657c0 5.769-3.285 8.921-8.656 8.921-5.423 0-8.657-3.152-8.657-8.921V9.026h5.423v7.638h10.065v4.809H60.77v8.708c0 2.725.783 4.006 3.234 4.006 2.399 0 3.233-1.281 3.233-4.006v-1.657h5.423ZM99.983 25.73a2.495 2.495 0 0 0-.01-.367 14.232 14.232 0 0 0-.34-2.41 13.48 13.48 0 0 0-.223-.787 6.071 6.071 0 0 0-.215-.642c-.08-.202-.161-.396-.241-.594a11.488 11.488 0 0 0-.948-1.686 10.004 10.004 0 0 0-2.415-2.483 11.031 11.031 0 0 0-3.623-1.741c.622.052 1.238.16 1.843.32-1.675-.857-3.668-1.346-5.958-1.346-2.942 0-5.697.917-7.861 2.602-2.72 2.126-4.5 5.48-4.5 9.796 0 7.586 5.787 12.709 12.826 12.709 3.39 0 6.316-.963 8.713-2.887l-2.765-4.004c-1.565 1.127-3.336 2.09-5.948 2.09-3.13 0-6.252-1.98-7.093-5.773h18.57c.143-.758.212-1.529.206-2.3v-.132a2.485 2.485 0 0 0-.018-.365Zm-18.758-1.796c.734-3.207 3.185-5.132 6.673-5.132 3.292 0 5.689 1.815 6.575 5.132H81.224Z"/><path fill="#E53057" d="M11.591 6.76H5.722v31.97h5.87V6.76ZM2.056 6.76H0v31.97h2.056V6.76ZM2.638 47.306 3.888 51l1.25-3.694h-2.5ZM7.722 39.665l-2.328 6.882H2.382L.056 39.665h7.666Z"/><path fill="#261D68" d="M49.446 9.974c1.209-1.565.95-3.838-.58-5.076a3.471 3.471 0 0 0-4.955.594c-1.208 1.565-.949 3.838.58 5.076a3.471 3.471 0 0 0 4.955-.594ZM95.59 17.852v-.57c-2.12-1.254-4.722-2.896-7.728-2.887-2.853 0-5.563 2.941-7.87 4.316V9.245l7.799 4.61 7.8-4.602v9.254c-.575-.266-1.074-1.443 0-.655Z"/><path fill="#E53057" d="M87.79 7.917 81.1 3.958 87.79 0l6.69 3.958-6.69 3.959Z"/><path fill="#E53057" d="M78.801 7.724V13.9l.617.633-.903.925-.904-.925.609-.633V7.376l-1.45-.861 3.435-2.034 7.585 4.49.224-.129 7.362-4.361 3.435 2.034-11.02 6.515-8.99-5.306Z"/><path fill="#fff" d="M100.001 26.096h-.01c0-.119 0-.247-.008-.366.015.121.021.244.018.366Z"/></g><defs><clipPath id="a"><path fill="#fff" d="M0 0h100v51H0z"/></clipPath></defs></svg>