<svg width="50" height="50" viewBox="0 0 50 50" fill="none" xmlns="http://www.w3.org/2000/svg">
<path d="M12.4852 35.8432H17.1175V24.5935L10.5 19.6303V33.8579C10.5 34.9564 11.3901 35.8432 12.4852 35.8432Z" fill="#4285F4"/>
<path d="M32.9994 35.8432H37.6317C38.7302 35.8432 39.6169 34.9531 39.6169 33.8579V19.6303L32.9994 24.5935" fill="#34A853"/>
<path d="M32.9994 15.9909V24.5935L39.6169 19.6303V16.9835C39.6169 14.5284 36.8144 13.1288 34.8523 14.6012" fill="#FBBC04"/>
<path d="M17.1175 24.5935L17.1175 15.9907L25.0585 21.9465L32.9994 15.9909V24.5935L25.0585 30.5492" fill="#EA4335"/>
<path d="M10.5 16.9835V19.6303L17.1175 24.5935L17.1175 15.9907L15.2646 14.6012C13.2992 13.1288 10.5 14.5284 10.5 16.9835Z" fill="#C5221F"/>
</svg>
