<svg xmlns="http://www.w3.org/2000/svg" width="50" height="50" fill="none"><path fill="#4285F4" d="M12.485 35.843h4.633v-11.25L10.5 19.63v14.228c0 1.098.89 1.985 1.985 1.985Z"/><path fill="#34A853" d="M33 35.843h4.632c1.098 0 1.985-.89 1.985-1.985V19.63l-6.618 4.963"/><path fill="#FBBC04" d="M33 15.99v8.603l6.617-4.963v-2.646c0-2.456-2.803-3.855-4.765-2.383"/><path fill="#EA4335" d="M17.117 24.593v-8.602l7.941 5.956L33 15.99v8.602l-7.94 5.956"/><path fill="#C5221F" d="M10.5 16.983v2.647l6.617 4.963v-8.602l-1.852-1.39c-1.966-1.472-4.765-.073-4.765 2.382Z"/></svg>